<?xml version="1.0" encoding="UTF-8" standalone="no"?>
<!-- Generator: Adobe Illustrator 16.0.0, SVG Export Plug-In . SVG Version: 6.00 Build 0)  -->

<svg
   xmlns:dc="http://purl.org/dc/elements/1.1/"
   xmlns:cc="http://creativecommons.org/ns#"
   xmlns:rdf="http://www.w3.org/1999/02/22-rdf-syntax-ns#"
   xmlns:svg="http://www.w3.org/2000/svg"
   xmlns="http://www.w3.org/2000/svg"
   xmlns:sodipodi="http://sodipodi.sourceforge.net/DTD/sodipodi-0.dtd"
   xmlns:inkscape="http://www.inkscape.org/namespaces/inkscape"
   version="1.1"
   id="Capa_1"
   x="0px"
   y="0px"
   width="1024"
   height="500"
   viewBox="0 0 1024 500"
   enable-background="new 0 0 792 232"
   xml:space="preserve"
   sodipodi:docname="brightid-reversed.svg"
   inkscape:version="0.92.3 (2405546, 2018-03-11)"
   inkscape:export-filename="C:\Users\Adam\Pictures\BrightID\brightid-reversed.png"
   inkscape:export-xdpi="315.13467"
   inkscape:export-ydpi="315.13467"><metadata
   id="metadata39"><rdf:RDF><cc:Work
       rdf:about=""><dc:format>image/svg+xml</dc:format><dc:type
         rdf:resource="http://purl.org/dc/dcmitype/StillImage" /><dc:title></dc:title></cc:Work></rdf:RDF></metadata><defs
   id="defs37">









</defs><sodipodi:namedview
   pagecolor="#fb8a61"
   bordercolor="#666666"
   borderopacity="1"
   objecttolerance="10"
   gridtolerance="10"
   guidetolerance="10"
   inkscape:pageopacity="0"
   inkscape:pageshadow="2"
   inkscape:window-width="1920"
   inkscape:window-height="1058"
   id="namedview35"
   showgrid="false"
   inkscape:zoom="0.25083316"
   inkscape:cx="524.14691"
   inkscape:cy="40.484542"
   inkscape:window-x="1912"
   inkscape:window-y="-8"
   inkscape:window-maximized="1"
   inkscape:current-layer="Capa_1" />
<path
   style="opacity:1;stroke-width:1.23556316;fill:#ffffff;fill-opacity:0.99447513"
   inkscape:connector-curvature="0"
   id="path2"
   d="m 307.82825,184.96163 h 17.86254 v 44.28753 h 0.73021 c 3.27919,-2.73307 11.48086,-7.10696 22.78132,-7.10696 21.50621,0 38.63853,13.12291 38.63853,48.29816 0,31.89483 -16.5862,54.67737 -49.93899,54.67737 -13.6678,0 -23.32867,-2.36857 -30.07237,-5.65023 V 184.96163 Z m 61.96843,87.48405 c 0,-27.15644 -11.84658,-34.99362 -25.15112,-34.99362 -7.47268,0 -14.94537,3.28042 -18.77315,8.56616 v 61.6027 c 3.64492,1.45797 8.74903,2.36858 14.21639,2.36858 17.8613,10e-4 29.70788,-12.20984 29.70788,-37.54382 z"
   inkscape:export-xdpi="120"
   inkscape:export-ydpi="120" /><path
   style="opacity:1;stroke-width:1.23556316;fill:#ffffff;fill-opacity:0.99447513"
   inkscape:connector-curvature="0"
   id="path4"
   d="m 460.01997,240.55209 c -3.64491,-0.91185 -7.65431,-1.4592 -11.30046,-1.4592 -9.29514,0 -19.13764,3.82777 -24.24051,11.48209 v 72.72153 H 406.6177 V 223.05528 h 13.8519 l 3.82777,12.21107 h 0.72775 c 4.37513,-8.02004 13.30578,-14.03353 25.33522,-14.03353 4.19103,0 7.47145,0.36326 9.6584,0.91061 v 18.40866 z"
   inkscape:export-xdpi="120"
   inkscape:export-ydpi="120" /><path
   style="opacity:1;stroke-width:1.23556316;fill:#ffffff;fill-opacity:0.99447513"
   inkscape:connector-curvature="0"
   id="path6"
   d="m 482.80376,182.59182 c 6.92533,0 12.0282,5.10411 12.0282,12.21231 0,6.56084 -5.10287,11.66372 -12.0282,11.66372 -6.56208,0 -11.84782,-5.10412 -11.84782,-11.66372 0,-7.1082 5.28574,-12.21231 11.84782,-12.21231 z m -8.38454,40.46222 h 18.04417 v 100.24124 h -18.04417 z"
   inkscape:export-xdpi="120"
   inkscape:export-ydpi="120" /><path
   style="opacity:1;stroke-width:1.23556316;fill:#ffffff;fill-opacity:0.99447513"
   inkscape:connector-curvature="0"
   id="path8"
   d="m 593.98219,322.5663 c 0,26.61032 -17.13231,39.73323 -42.64916,39.73323 -20.5956,0 -30.61849,-6.7437 -35.17525,-11.48208 l 10.38862,-14.03353 c 4.92124,5.65147 13.4874,10.20699 26.06296,10.20699 16.7666,0 23.69316,-7.65432 23.69316,-24.60624 v -8.01881 h -0.72898 c -3.28042,2.91717 -11.30046,7.28983 -22.96418,7.28983 -20.77723,0 -38.63853,-12.02697 -38.63853,-46.8402 0,-30.80259 15.85599,-52.85492 48.84552,-52.85492 14.21515,0 24.24051,2.18695 31.16584,5.46737 z m -32.62257,-85.47873 c -17.68091,0 -29.16176,11.84534 -29.16176,36.26995 0,26.2446 11.48085,33.17117 24.78787,33.17117 7.47145,0 14.76251,-3.0988 19.1364,-8.56616 v -58.32352 c -4.0094,-1.63959 -8.93065,-2.55144 -14.76251,-2.55144 z"
   inkscape:export-xdpi="120"
   inkscape:export-ydpi="120" /><path
   style="opacity:1;stroke-width:1.23556316;fill:#ffffff;fill-opacity:0.99447513"
   inkscape:connector-curvature="0"
   id="path10"
   d="m 696.59942,254.40152 v 68.89499 h -18.04293 v -65.61334 c 0,-12.02944 -6.01596,-20.23111 -18.40866,-20.23111 -11.66371,0 -20.41397,7.65431 -23.87725,15.67435 v 70.16887 H 618.22641 V 184.96163 h 18.04417 v 48.84552 h 0.72898 c 3.64491,-4.1935 12.94129,-12.21231 28.24991,-12.21231 19.3205,0 31.34995,11.84782 31.34995,32.80668 z"
   inkscape:export-xdpi="120"
   inkscape:export-ydpi="120" /><path
   style="opacity:1;stroke-width:1.23556316;fill:#ffffff;fill-opacity:0.99447513"
   inkscape:connector-curvature="0"
   id="path12"
   d="m 723.03058,295.0466 v -57.77617 h -14.21515 v -11.30046 l 14.21515,-3.64491 5.83186,-25.33398 h 12.02944 v 26.0642 h 26.79319 v 14.21515 h -26.79319 v 57.41168 c 0,9.84249 5.10288,14.21639 13.30578,14.21639 7.10572,0 11.84534,-1.64083 14.94414,-3.82778 l 4.73962,14.03476 c -3.64615,2.36858 -10.57148,5.10164 -24.05889,5.10164 -16.76659,0 -26.79195,-8.74778 -26.79195,-29.16052 z"
   inkscape:export-xdpi="120"
   inkscape:export-ydpi="120" /><path
   inkscape:connector-curvature="0"
   id="path14"
   d="M 789.19499,195.53188 H 811.9763 V 323.29651 H 789.19499 Z"
   style="stroke-width:1.23556316;fill:#ffffff;opacity:0.5"
   inkscape:export-xdpi="120"
   inkscape:export-ydpi="120" /><path
   inkscape:connector-curvature="0"
   id="path16"
   d="m 840.41155,195.53188 h 37.36219 c 40.46222,0 58.68801,20.04948 58.68801,61.60517 0,36.08709 -14.39801,66.15946 -58.50515,66.15946 H 840.41031 V 195.53188 Z m 22.78255,108.62576 h 13.3033 c 26.79319,0 36.45282,-15.67435 36.45282,-44.83611 0,-33.53442 -14.03476,-44.65325 -36.81607,-44.65325 H 863.1941 Z"
   style="stroke-width:1.23556316;fill:#ffffff;opacity:0.5"
   inkscape:export-xdpi="120"
   inkscape:export-ydpi="120" /><g
   id="g30"
   transform="matrix(1.2355631,0,0,1.2355631,-3.0035932,97.741999)"
   style="fill:#ffffff"
   inkscape:export-xdpi="120"
   inkscape:export-ydpi="120">
		<g
   id="g26"
   style="fill:#ffffff">
			<g
   id="g24"
   style="fill:#ffffff">
				<g
   id="g22"
   style="fill:#ffffff">
					<path
   style="fill:#ffffff"
   inkscape:connector-curvature="0"
   id="path18"
   d="m 87.738,86.593 v 31.632 c 0,17.472 14.163,31.635 31.634,31.635 17.471,0 31.633,-14.163 31.633,-31.635 0,-17.471 -14.162,-31.634 -31.633,-31.634 -0.039,0 -0.077,0.003 -0.116,0.003 v -10e-4 z" />
					<path
   style="fill:#ffffff"
   inkscape:connector-curvature="0"
   id="path20"
   d="m 124.364,18.356 h -12.75 -23.876 v 36.601 h 31.518 v 0.003 c 0.039,0 0.077,-0.003 0.116,-0.003 34.941,0 63.268,28.325 63.268,63.269 0,34.943 -28.327,63.268 -63.268,63.268 -34.942,0 -63.269,-28.325 -63.269,-63.268 V 86.593 h -35.68 v 28.949 h 0.233 c 0.043,53.72 43.604,97.254 97.333,97.254 53.756,0 97.336,-43.578 97.336,-97.335 0,-51.614 -40.179,-93.818 -90.961,-97.105 z" />
				</g>
			</g>
		</g>
		<rect
   style="fill:#ffffff"
   id="rect28"
   height="36.868999"
   width="35.355999"
   y="18.356001"
   x="20.646999" />
	</g>
</svg>