<svg width="36" height="36" viewBox="0 0 36 36" fill="none" xmlns="http://www.w3.org/2000/svg">
<circle cx="18" cy="18" r="18" fill="#4166EC" fill-opacity="0.05"/>
<circle cx="18" cy="18" r="17.75" stroke="#4166EC" stroke-opacity="0.49" stroke-width="0.5"/>
<path d="M18 14V27M18 14C18 14 18 12.5072 18 12C18 10.8954 18.8954 10 20 10C21.1046 10 22 10.8954 22 12C22 13.1046 21.1046 14 20 14C19.4027 14 18 14 18 14ZM18 14C18 14 18 12.0629 18 11.5C18 10.1193 16.8807 9 15.5 9C14.1193 9 13 10.1193 13 11.5C13 12.8807 14.1193 14 15.5 14C16.3178 14 18 14 18 14ZM11 18H25M11 18C9.89543 18 9 17.1046 9 16C9 14.8954 9.89543 14 11 14H25C26.1046 14 27 14.8954 27 16C27 17.1046 26.1046 18 25 18M11 18L11 25C11 26.1046 11.8954 27 13 27H23C24.1046 27 25 26.1046 25 25V18" stroke="#2F69FE" stroke-width="1.5" stroke-linecap="round" stroke-linejoin="round"/>
</svg>
